<svg width="46" height="46" viewBox="0 0 46 46" fill="none" xmlns="http://www.w3.org/2000/svg">
<g clip-path="url(#clip0_3_142)">
<path d="M36.05 15.8V14.45H34.9241C34.9241 11.8724 32.9 9.7511 30.2 9.52295V9.5C29.3 9.5 28.9621 8.9069 28.9612 8.1221L28.6794 2.7185C28.6029 1.49495 27.5999 0.5 26.3741 0.5H18.2741C17.0483 0.5 15.9894 1.49495 15.9134 2.7185L15.4621 8.1995C15.4621 8.94065 14.9 9.5 14 9.5V9.52295C11.3 9.7511 9.5 11.8724 9.5 14.45V31.55C9.5 34.1276 11.3 36.2489 14 36.477V36.5C14.9 36.5 15.462 37.0931 15.4629 37.8779L15.8563 43.2815C15.9337 44.5046 17.0483 45.5 18.2741 45.5H26.3741C27.5999 45.5 28.6588 44.505 28.7348 43.2815L28.9621 37.8005C28.9621 37.0593 29.3 36.5 30.2 36.5V36.477C32.9 36.2489 34.7 34.1276 34.7 31.55V31.1H34.9916C35.2391 31.1 35.15 30.9807 35.15 30.7337V24.4337C35.15 24.1862 35.2391 23.9 34.9916 23.9H34.7V20.75H36.05V19.4H35.15V18.5H36.05V18.05H35.15V17.15H36.05V16.7H35.15V15.8H36.05ZM16.8116 2.7743C16.8584 2.02955 17.528 1.4 18.2741 1.4H26.3741C27.1207 1.4 27.7907 2.02955 27.8375 2.77475L27.8645 3.2H16.7855L16.8116 2.7743ZM16.7292 4.1H27.9203L28.0612 6.35H16.5898L16.7292 4.1ZM16.4732 8.2274L16.534 7.25H28.1179L28.1741 8.15C28.1741 8.663 28.3433 9.1256 28.6219 9.5H16.0479C16.3139 9.1427 16.4736 8.7053 16.4732 8.2274ZM27.8366 43.2257C27.7903 43.9704 27.1202 44.6 26.3741 44.6H18.2741C17.5276 44.6 16.8575 43.9704 16.8107 43.2253L16.7842 42.8H27.8631L27.8366 43.2257ZM27.919 41.9H16.7279L16.5871 39.65H28.0589L27.919 41.9ZM28.175 37.7726L28.1143 38.75H16.5304L16.4741 37.85C16.4741 37.337 16.3049 36.8744 16.0263 36.5H28.6003C28.3343 36.8573 28.1746 37.2947 28.175 37.7726ZM33.8 31.55C33.8 33.7869 31.987 35.6 29.75 35.6H14.45C12.2131 35.6 10.4 33.7869 10.4 31.55V14.45C10.4 12.213 12.2131 10.4 14.45 10.4H29.75C31.987 10.4 33.8 12.213 33.8 14.45V31.55Z" fill="#231F20"/>
<path d="M16.3909 25.1078C16.7941 25.1078 17.0956 24.9913 17.2954 24.7586C17.4956 24.526 17.5955 24.2515 17.5955 23.9347C17.5955 23.6665 17.5064 23.4109 17.3273 23.1688C17.1491 22.9258 16.8233 22.8047 16.3526 22.8047C16.0232 22.8047 15.7343 22.8988 15.4868 23.086C15.238 23.2736 15.1138 23.5567 15.1138 23.9347C15.1138 24.2659 15.2267 24.544 15.4522 24.7703C15.6781 24.9949 15.9913 25.1078 16.3909 25.1078Z" fill="#231F20"/>
<path d="M21.0938 25.1001C21.4911 25.1001 21.8084 24.9489 22.0437 24.6465C22.28 24.3446 22.3979 23.7816 22.3979 22.9577C22.3979 22.3628 22.3128 21.8737 22.1418 21.4903C21.9713 21.106 21.641 20.9138 21.1491 20.9138C20.6973 20.9138 20.3666 21.0961 20.1573 21.461C19.9481 21.8251 19.8441 22.3619 19.8441 23.0711C19.8441 23.6053 19.9107 24.0341 20.0439 24.3581C20.2491 24.8527 20.5988 25.1001 21.0938 25.1001Z" fill="#231F20"/>
<path d="M32.45 14.45C32.45 12.9591 31.2408 11.75 29.75 11.75H14.45C12.9591 11.75 11.75 12.9591 11.75 14.45V31.55C11.75 33.0408 12.9591 34.25 14.45 34.25H29.75C31.2408 34.25 32.45 33.0408 32.45 31.55V14.45ZM28.85 20.3H29.75V22.1H28.85V20.3ZM27.05 20.3H27.95V22.1H27.05V20.3ZM25.25 20.3H26.15V22.1H25.25V20.3ZM21.1037 20.3225C21.893 20.3225 22.4632 20.6015 22.8155 21.1595C23.0877 21.5906 23.2241 22.1819 23.2241 22.933C23.2241 23.6444 23.1008 24.233 22.8542 24.6988C22.496 25.3657 21.9119 25.7 21.0992 25.7C20.3675 25.7 19.8217 25.4268 19.4648 24.8814C19.1665 24.4251 19.018 23.8136 19.018 23.0459C19.018 22.4515 19.107 21.9403 19.2857 21.5141C19.6209 20.7194 20.2271 20.3225 21.1037 20.3225ZM15.5777 13.1C16.318 13.1 16.9165 13.7237 16.9241 14.4964C16.9322 13.7237 17.5307 13.1 18.2705 13.1C19.0148 13.1 19.6241 13.739 19.6241 14.5171C19.6241 14.9202 19.4738 15.2951 19.2209 15.5584L16.9241 17.96L15.3797 16.344L15.4643 16.4327L14.6278 15.5584C14.3749 15.2947 14.2246 14.9202 14.2246 14.5171C14.2241 13.739 14.8334 13.1 15.5777 13.1ZM14.5009 21.6014C14.855 20.7338 15.5048 20.3 16.4467 20.3C17.128 20.3 17.6023 20.43 17.8709 20.7338C18.1382 21.0371 18.2727 21.2 18.2727 21.65H17.5145C17.4691 21.65 17.3966 21.3021 17.2976 21.1851C17.1135 20.966 16.8341 20.867 16.4592 20.867C16.0304 20.867 15.6902 21.042 15.4373 21.3822C15.1844 21.7224 15.0444 22.2121 15.0156 22.8457C15.1916 22.6238 15.4126 22.4595 15.6799 22.3497C15.9242 22.2516 16.1969 22.2039 16.497 22.2039C17.0078 22.2039 17.4538 22.3439 17.834 22.6247C18.2143 22.9046 18.4046 23.3226 18.4046 23.8788C18.4046 24.354 18.2246 24.7752 17.8646 25.142C17.5037 25.5087 16.9902 25.6924 16.3233 25.6924C15.7523 25.6924 15.26 25.5065 14.8455 25.1352C14.4311 24.7631 14.2241 24.1376 14.2241 23.2579C14.2241 22.6072 14.3168 22.055 14.5009 21.6014ZM17.8241 32.45C17.5757 32.45 17.3741 32.2484 17.3741 32C17.3741 31.7516 17.5757 31.55 17.8241 31.55C18.0725 31.55 18.2741 31.7516 18.2741 32C18.2741 32.2484 18.0725 32.45 17.8241 32.45ZM19.6241 32.45C19.3757 32.45 19.1741 32.2484 19.1741 32C19.1741 31.7516 19.3757 31.55 19.6241 31.55C19.8725 31.55 20.0741 31.7516 20.0741 32C20.0741 32.2484 19.8725 32.45 19.6241 32.45ZM21.4241 32.45C21.1757 32.45 20.9741 32.2484 20.9741 32C20.9741 31.7516 21.1757 31.55 21.4241 31.55C21.6725 31.55 21.8741 31.7516 21.8741 32C21.8741 32.2484 21.6725 32.45 21.4241 32.45ZM23.2241 32.45C22.9757 32.45 22.7741 32.2484 22.7741 32C22.7741 31.7516 22.9757 31.55 23.2241 31.55C23.4725 31.55 23.6741 31.7516 23.6741 32C23.6741 32.2484 23.4725 32.45 23.2241 32.45ZM25.0241 32.45C24.7757 32.45 24.5741 32.2484 24.5741 32C24.5741 31.7516 24.7757 31.55 25.0241 31.55C25.2725 31.55 25.4741 31.7516 25.4741 32C25.4741 32.2484 25.2725 32.45 25.0241 32.45ZM26.8241 32.45C26.5757 32.45 26.3741 32.2484 26.3741 32C26.3741 31.7516 26.5757 31.55 26.8241 31.55C27.0725 31.55 27.2741 31.7516 27.2741 32C27.2741 32.2484 27.0725 32.45 26.8241 32.45ZM30.2 28.85H14V27.95H30.2V28.85Z" fill="#231F20"/>
</g>
<defs>
<clipPath id="clip0_3_142">
<rect width="45" height="45" fill="white" transform="translate(0.5 0.5)"/>
</clipPath>
</defs>
</svg>
